<?xml version="1.0" encoding="UTF-8" standalone="no"?>
<!-- Uploaded to: SVG Repo, www.svgrepo.com, Generator: SVG Repo Mixer Tools -->

<svg
   fill="#000000"
   width="666.66669"
   height="666.66669"
   viewBox="0 0 20.000001 20.000001"
   version="1.1"
   id="svg1945"
   sodipodi:docname="delete-svgrepo-com.svg"
   inkscape:version="1.2.2 (b0a8486, 2022-12-01)"
   xmlns:inkscape="http://www.inkscape.org/namespaces/inkscape"
   xmlns:sodipodi="http://sodipodi.sourceforge.net/DTD/sodipodi-0.dtd"
   xmlns="http://www.w3.org/2000/svg"
   xmlns:svg="http://www.w3.org/2000/svg">
  <defs
     id="defs1949" />
  <sodipodi:namedview
     id="namedview1947"
     pagecolor="#ffffff"
     bordercolor="#000000"
     borderopacity="0.25"
     inkscape:showpageshadow="2"
     inkscape:pageopacity="0.0"
     inkscape:pagecheckerboard="0"
     inkscape:deskcolor="#d1d1d1"
     showgrid="false"
     inkscape:zoom="0.295"
     inkscape:cx="330.50847"
     inkscape:cy="332.20339"
     inkscape:window-width="1440"
     inkscape:window-height="456"
     inkscape:window-x="0"
     inkscape:window-y="70"
     inkscape:window-maximized="0"
     inkscape:current-layer="svg1945" />
  <path
     d="M 3.755,18.283 2,6 H 18 L 16.245,18.283 A 2,2 0 0 1 14.265,20 H 5.735 A 2,2 0 0 1 3.755,18.283 Z M 19,2 H 14 V 1 A 1,1 0 0 0 13,0 H 7 A 1,1 0 0 0 6,1 V 2 H 1 a 1,1 0 0 0 0,2 h 18 a 1,1 0 0 0 0,-2 z"
     id="path1943"
     style="fill:#ffffff;fill-opacity:1" />
</svg>
