<?xml version="1.0" encoding="UTF-8" standalone="no"?>
<!-- Uploaded to: SVG Repo, www.svgrepo.com, Generator: SVG Repo Mixer Tools -->

<svg
   width="716.625"
   height="716.57526"
   viewBox="0 0 57.33 57.326021"
   fill="none"
   version="1.1"
   id="svg4"
   sodipodi:docname="download-circle-svgrepo-com.svg"
   inkscape:version="1.2.2 (b0a8486, 2022-12-01)"
   xmlns:inkscape="http://www.inkscape.org/namespaces/inkscape"
   xmlns:sodipodi="http://sodipodi.sourceforge.net/DTD/sodipodi-0.dtd"
   xmlns="http://www.w3.org/2000/svg"
   xmlns:svg="http://www.w3.org/2000/svg">
  <defs
     id="defs8" />
  <sodipodi:namedview
     id="namedview6"
     pagecolor="#ffffff"
     bordercolor="#000000"
     borderopacity="0.25"
     inkscape:showpageshadow="2"
     inkscape:pageopacity="0.0"
     inkscape:pagecheckerboard="0"
     inkscape:deskcolor="#d1d1d1"
     showgrid="false"
     inkscape:zoom="0.295"
     inkscape:cx="361.01695"
     inkscape:cy="355.9322"
     inkscape:window-width="1440"
     inkscape:window-height="456"
     inkscape:window-x="0"
     inkscape:window-y="70"
     inkscape:window-maximized="0"
     inkscape:current-layer="svg4" />
  <path
     d="M 28.67,0 C 21.0687,0.00794 13.781,3.03107 8.406,8.40602 3.03107,13.78092 0.00794,21.06872 0,28.67002 c 0.00953,7.5995 3.03361,14.8849 8.4086,20.2572 5.375,5.3724 12.6619,8.393 20.2614,8.3988 7.5987,-0.008 14.8838,-3.03 20.2569,-8.4031 C 54.3,43.54982 57.322,36.26462 57.33,28.66602 57.321,21.06712 54.2988,13.78192 48.9261,8.40812 43.5534,3.03433 36.2689,0.01058 28.67,0 Z m 10.11,37.82602 -8.99,5.99 -0.01,0.01 c -0.3272,0.2229 -0.7141,0.3414 -1.11,0.34 -0.3961,0.0029 -0.7835,-0.1158 -1.11,-0.34 l -0.17,-0.12 -8.83,-5.88 c -0.4412,-0.2934 -0.748,-0.7498 -0.853,-1.2692 -0.105,-0.5193 4e-4,-1.0591 0.293,-1.5008 0.2956,-0.4415 0.7537,-0.7481 1.2746,-0.8531 0.5208,-0.1049 1.062,5e-4 1.5054,0.2931 l 5.89,3.93 v -23.26 c -9e-4,-0.2629 0.0502,-0.5234 0.1504,-0.7665 0.1001,-0.2431 0.2474,-0.4639 0.4333,-0.6498 0.1859,-0.1859 0.4068,-0.3332 0.6498,-0.4334 0.2431,-0.1001 0.5036,-0.1512 0.7665,-0.1503 0.5304,0 1.0391,0.2107 1.4142,0.5858 0.3751,0.375 0.5858,0.8837 0.5858,1.4142 v 23.26 l 5.89,-3.93 c 0.4417,-0.2926 0.9815,-0.398 1.5008,-0.293 0.5194,0.105 0.9758,0.4118 1.2692,0.853 0.2936,0.4405 0.4005,0.9794 0.2974,1.4986 -0.1031,0.5193 -0.4078,0.9764 -0.8474,1.2714 z"
     fill="#999999"
     id="path2"
     style="fill:#ffffff" />
</svg>
