<?xml version="1.0" encoding="UTF-8" standalone="no"?>
<!-- Uploaded to: SVG Repo, www.svgrepo.com, Generator: SVG Repo Mixer Tools -->

<svg
   fill="#000000"
   width="750.13721"
   height="690.00012"
   viewBox="0 0 15.002744 13.800002"
   version="1.1"
   id="svg6"
   sodipodi:docname="edit-svgrepo-com.svg"
   inkscape:version="1.2.2 (b0a8486, 2022-12-01)"
   xmlns:inkscape="http://www.inkscape.org/namespaces/inkscape"
   xmlns:sodipodi="http://sodipodi.sourceforge.net/DTD/sodipodi-0.dtd"
   xmlns="http://www.w3.org/2000/svg"
   xmlns:svg="http://www.w3.org/2000/svg">
  <defs
     id="defs10" />
  <sodipodi:namedview
     id="namedview8"
     pagecolor="#ffffff"
     bordercolor="#000000"
     borderopacity="0.25"
     inkscape:showpageshadow="2"
     inkscape:pageopacity="0.0"
     inkscape:pagecheckerboard="0"
     inkscape:deskcolor="#d1d1d1"
     showgrid="false"
     inkscape:zoom="0.295"
     inkscape:cx="374.57627"
     inkscape:cy="345.76271"
     inkscape:window-width="1440"
     inkscape:window-height="456"
     inkscape:window-x="0"
     inkscape:window-y="70"
     inkscape:window-maximized="0"
     inkscape:current-layer="svg6" />
  <path
     d="m 14.992061,6.200002 h -1.16 v 6.35 H 1.1720611 v -10.37 h 6.33 V 0.90000199 h -6.33 A 1.21,1.21 0 0 0 0.00206111,2.180002 v 10.37 a 1.21,1.21 0 0 0 1.16999999,1.25 H 13.832061 a 1.21,1.21 0 0 0 1.17,-1.25 z"
     id="path2"
     style="fill:#ffffff;fill-opacity:1" />
  <path
     d="m 10.062061,1.770002 -4.3399999,4.35 -0.44,0.44 -0.08,0.08 -1.52,3.16 a 1.08,1.08 0 0 0 1.45,1.45 l 3.14,-1.53 0.53,-0.53 0.43,-0.43 4.3399999,-4.36 0.45,-0.44 0.25,-0.25 a 2.18,2.18 0 0 0 0,-3.08000001 2.17,2.17 0 0 0 -1.53,-0.6299999958986 2.19,2.19 0 0 0 -1.54,0.6299999958986 l -0.7,0.69000001 -0.45,0.44 z m -5.0499999,8.13 1.18,-2.43 1.25,1.26 z m 2,-3.36 3.8999999,-3.91 1.3,1.31 -3.8599999,3.96 z m 5.6799999,-5.31 a 0.91,0.91 0 0 1 0.65,0.27 0.93,0.93 0 0 1 0,1.31 l -0.25,0.24 -1.3,-1.3 0.25,-0.25 a 0.88,0.88 0 0 1 0.69,-0.25 z"
     id="path4"
     style="fill:#ffffff;fill-opacity:1" />
</svg>
