<?xml version="1.0" encoding="UTF-8" standalone="no"?>
<!-- Uploaded to: SVG Repo, www.svgrepo.com, Generator: SVG Repo Mixer Tools -->

<svg
   fill="#000000"
   width="600"
   height="600"
   viewBox="0 0 12 12"
   version="1.1"
   id="svg5"
   sodipodi:docname="file-addition-solid-svgrepo-com.svg"
   inkscape:version="1.2.2 (b0a8486, 2022-12-01)"
   xmlns:inkscape="http://www.inkscape.org/namespaces/inkscape"
   xmlns:sodipodi="http://sodipodi.sourceforge.net/DTD/sodipodi-0.dtd"
   xmlns="http://www.w3.org/2000/svg"
   xmlns:svg="http://www.w3.org/2000/svg"
   xmlns:rdf="http://www.w3.org/1999/02/22-rdf-syntax-ns#"
   xmlns:cc="http://creativecommons.org/ns#"
   xmlns:dc="http://purl.org/dc/elements/1.1/">
  <defs
     id="defs9" />
  <sodipodi:namedview
     id="namedview7"
     pagecolor="#ffffff"
     bordercolor="#000000"
     borderopacity="0.25"
     inkscape:showpageshadow="2"
     inkscape:pageopacity="0.0"
     inkscape:pagecheckerboard="0"
     inkscape:deskcolor="#d1d1d1"
     showgrid="false"
     inkscape:zoom="0.295"
     inkscape:cx="296.61017"
     inkscape:cy="298.30508"
     inkscape:window-width="1440"
     inkscape:window-height="456"
     inkscape:window-x="0"
     inkscape:window-y="70"
     inkscape:window-maximized="0"
     inkscape:current-layer="svg5" />
  <title
     id="title2">icn/file-additions-solid</title>
  <path
     d="M 5,5 H 3 A 1,1 0 1 0 3,7 H 5 V 9 A 1,1 0 0 0 7,9 V 7 H 9 A 1,1 0 0 0 9,5 H 7 V 3 A 1,1 0 1 0 5,3 Z M 2.25,0 h 7.5 A 2.25,2.25 0 0 1 12,2.25 v 7.5 A 2.25,2.25 0 0 1 9.75,12 H 2.25 A 2.25,2.25 0 0 1 0,9.75 V 2.25 A 2.25,2.25 0 0 1 2.25,0 Z"
     id="a"
     style="fill:#ffffff;fill-opacity:1" />
  <metadata
     id="metadata792">
    <rdf:RDF>
      <cc:Work
         rdf:about="">
        <dc:title>icn/file-additions-solid</dc:title>
      </cc:Work>
    </rdf:RDF>
  </metadata>
</svg>
